/* XPM */
static char *_7a6ef64b87445e9e06599db2e3a627fkwYC1nDeJSpDYmUk[] = {
/* columns rows colors chars-per-pixel */
"20 20 87 1 ",
"  c #7E2F00",
". c #7F3101",
"X c #842B00",
"o c #8D2C0C",
"O c #902C0A",
"+ c #853302",
"@ c #8A3503",
"# c #8B3902",
"$ c #8A3109",
"% c #8E3B09",
"& c #913406",
"* c #933B03",
"= c #9A3C00",
"- c #993B0B",
"; c #993913",
": c #8C4402",
"> c #934103",
", c #9B4202",
"< c #904A04",
"1 c #9C4C00",
"2 c #9D4408",
"3 c #9F5202",
"4 c #A34402",
"5 c #A44D01",
"6 c #AA4E02",
"7 c #A34508",
"8 c #AE470C",
"9 c #A44D0B",
"0 c #AB4D0B",
"q c #A55202",
"w c #AB5302",
"e c #AC5B02",
"r c #A55409",
"t c #AD530A",
"y c #A15A0C",
"u c #AC5909",
"i c #B25303",
"p c #B45C02",
"a c #BB5B02",
"s c #B15608",
"d c #B9550A",
"f c #B35A0A",
"g c #BA5E0A",
"h c #A14810",
"j c #AE5010",
"k c #B05810",
"l c #B46201",
"z c #BC6402",
"x c #B5640D",
"c c #BE6309",
"v c #C15900",
"b c #C36303",
"n c #CA6701",
"m c #C56B01",
"M c #CB6C04",
"N c #C76C0A",
"B c #C96E0C",
"V c #D16F04",
"C c #D36C0D",
"Z c #C57301",
"A c #CC7304",
"S c #CC7901",
"D c #CB720E",
"F c #CE7909",
"G c #D27302",
"H c #DE7D00",
"J c #D3720B",
"K c #D9740A",
"L c #DE790D",
"P c #E17F00",
"I c #D48100",
"U c #DD8300",
"Y c #DF8D00",
"T c #D58009",
"R c #D9800A",
"E c #E28302",
"W c #E98605",
"Q c #E58B03",
"! c #E98E02",
"~ c #E68908",
"^ c #F78D03",
"/ c #ED9005",
"( c #EC9804",
") c #F19100",
"_ c #F79900",
"` c #F89907",
"' c #F69010",
/* pixels */
"w,i6uwigG$Faq3www9ew",
"*ue6bvt3^l.,e0twwm!K",
"LU,uBMqif3FQa5pe8p>%",
"*Lp66wqu5-pmsw65w6pb",
"eqwip5z4fiw560fpSoTN",
"v55t5b_N@6i6Mb5q!aX+",
"pqxe6g**G~1ymGteisJE",
"pi5505xp*Udqw69wq&lm",
"4ewaA+Wbqw9wewg4zwq9",
"Gaqq)r >awrqtb_Mo6i5",
"AD6asrGEp9e58p><AQ4j",
"0r5ww=azfwitwwpp-Ip5",
"i6c7wtqq5twgZ&UNqwtk",
"6m!A*6p0mc5w(p :fw1q",
"ei-#SW16MSqeiiCEc5w5",
"w5ba:Uiq6606q=pmiiwq",
"G&Sbqw5fw0a1si155wtz",
"'l@;z6wq5ZQD#wiwmb66",
"6rMQe5ew6f-#AE2wMbit",
"4+lMwa9wt5ag#~p0ipsp"
};
