/* XPM */
static char *_7ea90b37055464ff08408ce848e812cfz3jZO23xJLq5iJa[] = {
/* columns rows colors chars-per-pixel */
"20 20 256 2 ",
"   c #1D180C",
".  c #1C1B1A",
"X  c #231C12",
"o  c #221D18",
"O  c #272016",
"+  c #2D2212",
"@  c #24201C",
"#  c #2C2419",
"$  c #332515",
"%  c #382716",
"&  c #372814",
"*  c #3B2B16",
"=  c #32261A",
"-  c #34291C",
";  c #3C2C1A",
":  c #372E24",
">  c #392C21",
",  c #3F3121",
"<  c #35312A",
"1  c #3E352C",
"2  c #412D17",
"3  c #412C19",
"4  c #44301A",
"5  c #4C341C",
"6  c #51371D",
"7  c #543B1D",
"8  c #5C3F1F",
"9  c #402F20",
"0  c #433323",
"q  c #4B3522",
"w  c #4C3926",
"e  c #43382D",
"r  c #4C3B2B",
"t  c #523720",
"y  c #533B25",
"u  c #5B3C22",
"i  c #523B2A",
"p  c #5A3F2D",
"a  c #413C37",
"s  c #4A3E32",
"d  c #513E31",
"f  c #603F23",
"g  c #5D4224",
"h  c #5C4029",
"j  c #4C4137",
"k  c #4D4238",
"l  c #504033",
"z  c #5F4431",
"x  c #5C4833",
"c  c #574A3B",
"v  c #5B4B3D",
"b  c #634324",
"n  c #6B4725",
"m  c #6E4826",
"M  c #62452B",
"N  c #6B4528",
"B  c #65492B",
"V  c #6B4A2A",
"C  c #724B27",
"Z  c #734B2B",
"A  c #7A4F2C",
"S  c #7D512D",
"D  c #634531",
"F  c #634C36",
"G  c #6B4D33",
"H  c #634E3C",
"J  c #724E33",
"K  c #7A4F31",
"L  c #6E5036",
"P  c #6B543E",
"I  c #725031",
"U  c #7B5434",
"Y  c #72543D",
"T  c #7B5539",
"R  c #77583E",
"E  c #7E593B",
"W  c #735643",
"Q  c #765A43",
"!  c #7A5C46",
"~  c #765D49",
"^  c #7B604B",
"/  c #7B6454",
"(  c #766558",
")  c #83542F",
"_  c #835532",
"`  c #875833",
"'  c #8D5A34",
"]  c #845A3B",
"[  c #8B5D3B",
"{  c #925C35",
"}  c #985F37",
"|  c #915E3A",
" . c #8D603D",
".. c #996037",
"X. c #91603C",
"o. c #9B633C",
"O. c #A1653C",
"+. c #A6683D",
"@. c #AA6A3F",
"#. c #855F43",
"$. c #826046",
"%. c #8C6243",
"&. c #81614A",
"*. c #8D6549",
"=. c #8D684D",
"-. c #946340",
";. c #996643",
":. c #936A4E",
">. c #9D6948",
",. c #9D6C4A",
"<. c #9D6F4F",
"1. c #806A59",
"2. c #8D6E58",
"3. c #966E51",
"4. c #996F51",
"5. c #997054",
"6. c #A06942",
"7. c #A66C46",
"8. c #AA6940",
"9. c #AB6D43",
"0. c #AE6C40",
"q. c #A86C44",
"w. c #AB6D44",
"e. c #AC6B40",
"r. c #A46F4B",
"t. c #B26F43",
"y. c #A6724E",
"u. c #A97049",
"i. c #B17147",
"p. c #BD7647",
"a. c #B6764D",
"s. c #A37453",
"d. c #A77959",
"f. c #A5795B",
"g. c #A1785C",
"h. c #B17853",
"j. c #9F7B62",
"k. c #A17F69",
"l. c #BA8A6B",
"z. c #C18159",
"x. c black",
"c. c black",
"v. c black",
"b. c black",
"n. c black",
"m. c black",
"M. c black",
"N. c black",
"B. c black",
"V. c black",
"C. c black",
"Z. c black",
"A. c black",
"S. c black",
"D. c black",
"F. c black",
"G. c black",
"H. c black",
"J. c black",
"K. c black",
"L. c black",
"P. c black",
"I. c black",
"U. c black",
"Y. c black",
"T. c black",
"R. c black",
"E. c black",
"W. c black",
"Q. c black",
"!. c black",
"~. c black",
"^. c black",
"/. c black",
"(. c black",
"). c black",
"_. c black",
"`. c black",
"'. c black",
"]. c black",
"[. c black",
"{. c black",
"}. c black",
"|. c black",
" X c black",
".X c black",
"XX c black",
"oX c black",
"OX c black",
"+X c black",
"@X c black",
"#X c black",
"$X c black",
"%X c black",
"&X c black",
"*X c black",
"=X c black",
"-X c black",
";X c black",
":X c black",
">X c black",
",X c black",
"<X c black",
"1X c black",
"2X c black",
"3X c black",
"4X c black",
"5X c black",
"6X c black",
"7X c black",
"8X c black",
"9X c black",
"0X c black",
"qX c black",
"wX c black",
"eX c black",
"rX c black",
"tX c black",
"yX c black",
"uX c black",
"iX c black",
"pX c black",
"aX c black",
"sX c black",
"dX c black",
"fX c black",
"gX c black",
"hX c black",
"jX c black",
"kX c black",
"lX c black",
"zX c black",
"xX c black",
"cX c black",
"vX c black",
"bX c black",
"nX c black",
"mX c black",
"MX c black",
"NX c black",
"BX c black",
"VX c black",
"CX c black",
"ZX c black",
"AX c black",
"SX c black",
"DX c black",
"FX c black",
"GX c black",
"HX c black",
"JX c black",
"KX c black",
"LX c black",
"PX c black",
"IX c black",
"UX c black",
/* pixels */
">.l.z.w.p.0.a.i.N U t.f.d.u | +.+.C :.J ",
"#.<.w.o.y.,.;.[ 4 J } #.I $ ' } _ 5 Y 1 ",
"W | *.*.[ ] S m = M o.) b O ] 9.%.s 0 o ",
"T S F c B b B V - M ` U C $ [ 3.! r G 0 ",
"s y 0 0 w w q 4   q u y 4 X [ 1.( r i @ ",
"h M i h - - q y q 0 # y q > ] [ T e H D ",
"^ T U E 0 J o.6.O.) 9 | A 4 U U F 0 Q T ",
"4.T C B 4 A ' ` S b = 6 2 X _ G P ; V _ ",
"g.I b b 2 m G G b b u o.) * S E T 5 ! j.",
"[ m B b & 6 V J A b u ` m $ m ] G 5 K =.",
"S M g b $ - 6 5 5 + 3 ` n $ | %.( s ! 2.",
"m y g b + i 8.` A 6 i [ g - #.] / k ~  .",
"* & ; & X q N 7 7 $ 3 ' I : &.` P a w 4 ",
": Z Z G T ] f $ = - q { S = j ; < . : , ",
"D @.o.X.%.%.A & F G ; 6 2 o d T B W T l ",
"p o.8.o.$.^ V & 0 = ; A b : ( s.o.u. .0 ",
"p } ' E ! ~ I * > y y b b % W k.5.] G * ",
"h { ' R F F V * z r.-.{ { 5 _ h.^ v G > ",
"l U C n M V A & J 7.o.S S ; U 5.H x U ; ",
"r V 7 8 g M u - D ] Y b 7 # v G y y g $ "
};
