/* XPM */
static char *d4b11d56177a460798485e2b7c7e5301Up5fXnhVTvrAmxpP[] = {
/* columns rows colors chars-per-pixel */
"20 20 139 2 ",
"   c #0A0A16",
".  c #0C0C1C",
"X  c #060621",
"o  c #0A0A26",
"O  c #04042B",
"+  c #0A0A2C",
"@  c #050532",
"#  c #0C0C34",
"$  c #04043C",
"%  c #0B0B3D",
"&  c #11113B",
"*  c #020244",
"=  c #0A0A43",
"-  c #03034B",
";  c #0B0B49",
":  c #12124E",
">  c #010153",
",  c #0C0C52",
"<  c #02025D",
"1  c #0A0A5E",
"2  c #171754",
"3  c #212154",
"4  c #292952",
"5  c #010164",
"6  c #090965",
"7  c #01016B",
"8  c #0B0B6D",
"9  c #141465",
"0  c #16166B",
"q  c #1F1F6D",
"w  c #020274",
"e  c #080872",
"r  c #01017C",
"t  c #09097C",
"y  c #151572",
"u  c #16167A",
"i  c #222265",
"p  c #222273",
"a  c #000086",
"s  c #000087",
"d  c #010187",
"f  c #000084",
"g  c #050584",
"h  c #060687",
"j  c #030382",
"k  c #080880",
"l  c #080881",
"z  c #090981",
"x  c #090984",
"c  c #080886",
"v  c #080887",
"b  c #000088",
"n  c #010188",
"m  c #000089",
"M  c #00008A",
"N  c #00008B",
"B  c #040488",
"V  c #070788",
"C  c #07078B",
"Z  c #00008C",
"A  c #00008D",
"S  c #00008E",
"D  c #00008F",
"F  c #03038E",
"G  c #05058C",
"H  c #080888",
"J  c #08088C",
"K  c #09098E",
"L  c #141484",
"P  c #17178F",
"I  c #000090",
"U  c #000091",
"Y  c #000092",
"T  c #010192",
"R  c #000093",
"E  c #000095",
"W  c #000096",
"Q  c #000097",
"!  c #070794",
"~  c #060695",
"^  c #070795",
"/  c #000098",
"(  c #010198",
")  c #000099",
"_  c #010199",
"`  c #030399",
"'  c #00009A",
"]  c #00009B",
"[  c #050598",
"{  c #00009C",
"}  c #02029D",
"|  c #00009E",
" . c #00009F",
".. c #0000A0",
"X. c #0000A1",
"o. c #0000A2",
"O. c #0101A2",
"+. c #0000A3",
"@. c #0000A4",
"#. c #0000A5",
"$. c #0000A6",
"%. c #0000A7",
"&. c #0404A5",
"*. c #0000A8",
"=. c #0000A9",
"-. c #0202A9",
";. c #0000AA",
":. c #0000AB",
">. c #0202AA",
",. c #0000AC",
"<. c #0000AD",
"1. c #0101AD",
"2. c #0000AE",
"3. c #0202AF",
"4. c #0101B0",
"5. c #0000B1",
"6. c #0000B2",
"7. c #0000B3",
"8. c #0101B3",
"9. c #0404B3",
"0. c #0000B4",
"q. c #0000B5",
"w. c #0000B6",
"e. c #0000B7",
"r. c #0303B7",
"t. c #0404B5",
"y. c #0000B8",
"u. c #0000B9",
"i. c #0000BA",
"p. c #0000BB",
"a. c #0000C0",
"s. c #0000C1",
"d. c #0000C2",
"f. c #0000C5",
"g. c #0202C5",
"h. c #0000C7",
"j. c #0000C9",
"k. c #0000CB",
"l. c MediumBlue",
/* pixels */
"e W Y Y D Y 6 6 ;.] N W Y ]  . .: [ @.e ",
"w ;.Y Y D w * ; r 7 < 7 w * % % # ;.X.> ",
"7 @.Y N f w $ 1 l.;.<. .@.; v f %  .] * ",
"7 D f r 5 5 $ 1 y.X.;.f w # N w % W N * ",
"> 5 > * * $ O 6 q.Y W a 7 O G f + = # + ",
"] W N N 5 Y N w q.X.W w < O h w # k w 4.",
" .@.N f <  .a * 6 - @ $ O . = $ $ > e y.",
"] Y D w - W 7 # v ~ ~ C C ~ = t l.5 e <.",
"] @.D w * % + % a.h.l.4.Y W $ k h.> e a.",
"Y W 7 5 O 8 G ; <. .] Y r 7 @ t y.6 6 ;.",
"Y r 5 7 @ k D % q.@.a r 7 < @ t q.> 6 ] ",
"D r 5 > @ t a + 1 ; @ $ @ @   k X.* 8 @.",
"; * * * X t h # C C C k t h ; t 4.* ; 5 ",
"8 @.;.4.e 6 5 % j.l.y.Y a ] > e Y @ , < ",
"~ a.;.4.w # ; & 4.4.<.N 7 7 $ # $ o , ; ",
"K <.X.] 7 t @.; 4.@.p.X.5 5 @ 8 t.&.@.7 ",
"H h.t.a ; k ] % <.Y D D w 7 O t a.X.a - ",
"K <.a ] $ k D % ;.] a 7 w w O t ;.W r * ",
"k D w a * t w $ ;. .r 6 > > O k 4.W f * ",
"q y 0 0 2 i y 4 P u 0 0 0 0 2 p L 0 y 2 "
};
